HIERARCHY
ROOT Hips
{
	OFFSET 0.000000 100.481300 0.000000
	CHANNELS 6 Xposition Yposition Zposition Xrotation Yrotation Zrotation
	JOINT Spine
	{
		OFFSET -0.279200 12.230698 -2.892100
		CHANNELS 3 Xrotation Yrotation Zrotation
		JOINT Spine1
		{
			OFFSET -0.325700 14.269203 -3.374200
			CHANNELS 3 Xrotation Yrotation Zrotation
			JOINT Spine2
			{
				OFFSET -0.372300 16.307602 -0.352600
				CHANNELS 3 Xrotation Yrotation Zrotation
				JOINT Neck
				{
					OFFSET -0.418800 17.814194 8.416900
					CHANNELS 3 Xrotation Yrotation Zrotation
					JOINT Head
					{
						OFFSET 0.000000 7.031097 3.806800
						CHANNELS 3 Xrotation Yrotation Zrotation
						JOINT HeadTop_End
						{
							OFFSET 0.000000 24.646606 12.978600
							CHANNELS 3 Xrotation Yrotation Zrotation
							End Site
							{
								OFFSET 0.000000 27.854965 0.000000
							}
						}
					}
				}
				JOINT LeftShoulder
				{
					OFFSET 16.952999 14.495407 -7.737500
					CHANNELS 3 Xrotation Yrotation Zrotation
					JOINT LeftArm
					{
						OFFSET 9.308998 -2.777710 0.208600
						CHANNELS 3 Xrotation Yrotation Zrotation
						JOINT LeftForeArm
						{
							OFFSET 29.972298 0.000000 0.000000
							CHANNELS 3 Xrotation Yrotation Zrotation
							JOINT LeftHand
							{
								OFFSET 26.026505 0.000000 0.000000
								CHANNELS 3 Xrotation Yrotation Zrotation
								JOINT LeftHandThumb1
								{
									OFFSET 12.240501 -7.147949 9.207150
									CHANNELS 3 Xrotation Yrotation Zrotation
									JOINT LeftHandThumb2
									{
										OFFSET 4.138618 -2.389435 2.389433
										CHANNELS 3 Xrotation Yrotation Zrotation
										JOINT LeftHandThumb3
										{
											OFFSET 2.726913 -1.574387 1.574386
											CHANNELS 3 Xrotation Yrotation Zrotation
											JOINT LeftHandThumb4
											{
												OFFSET 3.941010 -2.275345 2.275342
												CHANNELS 3 Xrotation Yrotation Zrotation
												End Site
												{
													OFFSET -0.005798 5.087799 0.009903
												}
											}
										}
									}
								}
								JOINT LeftHandIndex1
								{
									OFFSET 24.424698 -1.985611 5.953459
									CHANNELS 3 Xrotation Yrotation Zrotation
									JOINT LeftHandIndex2
									{
										OFFSET 6.426697 0.000000 0.000000
										CHANNELS 3 Xrotation Yrotation Zrotation
										JOINT LeftHandIndex3
										{
											OFFSET 5.337898 0.000000 0.000000
											CHANNELS 3 Xrotation Yrotation Zrotation
											JOINT LeftHandIndex4
											{
												OFFSET 4.409401 0.000000 0.000000
												CHANNELS 3 Xrotation Yrotation Zrotation
												End Site
												{
													OFFSET 0.000000 4.409363 0.014373
												}
											}
										}
									}
								}
								JOINT LeftHandMiddle1
								{
									OFFSET 23.810104 0.000000 0.000000
									CHANNELS 3 Xrotation Yrotation Zrotation
									JOINT LeftHandMiddle2
									{
										OFFSET 7.176498 0.000000 0.000000
										CHANNELS 3 Xrotation Yrotation Zrotation
										JOINT LeftHandMiddle3
										{
											OFFSET 6.774902 0.000000 0.000000
											CHANNELS 3 Xrotation Yrotation Zrotation
											JOINT LeftHandMiddle4
											{
												OFFSET 5.403328 0.000000 0.000000
												CHANNELS 3 Xrotation Yrotation Zrotation
												End Site
												{
													OFFSET -0.027702 5.403244 0.017414
												}
											}
										}
									}
								}
								JOINT LeftHandRing1
								{
									OFFSET 22.908401 -0.839279 -6.020567
									CHANNELS 3 Xrotation Yrotation Zrotation
									JOINT LeftHandRing2
									{
										OFFSET 6.337502 0.000000 0.000000
										CHANNELS 3 Xrotation Yrotation Zrotation
										JOINT LeftHandRing3
										{
											OFFSET 5.779297 0.000000 0.000000
											CHANNELS 3 Xrotation Yrotation Zrotation
											JOINT LeftHandRing4
											{
												OFFSET 4.965698 0.000000 0.000000
												CHANNELS 3 Xrotation Yrotation Zrotation
												End Site
												{
													OFFSET 0.000000 4.965668 0.016186
												}
											}
										}
									}
								}
								JOINT LeftHandPinky1
								{
									OFFSET 20.037003 -1.530319 -10.950146
									CHANNELS 3 Xrotation Yrotation Zrotation
									JOINT LeftHandPinky2
									{
										OFFSET 5.254700 0.000000 0.000000
										CHANNELS 3 Xrotation Yrotation Zrotation
										JOINT LeftHandPinky3
										{
											OFFSET 4.810204 0.000000 0.000000
											CHANNELS 3 Xrotation Yrotation Zrotation
											JOINT LeftHandPinky4
											{
												OFFSET 3.647202 0.000000 0.000000
												CHANNELS 3 Xrotation Yrotation Zrotation
												End Site
												{
													OFFSET 0.000000 3.647186 0.011889
												}
											}
										}
									}
								}
							}
						}
					}
				}
				JOINT RightShoulder
				{
					OFFSET -15.141001 14.495407 -7.737500
					CHANNELS 3 Xrotation Yrotation Zrotation
					JOINT RightArm
					{
						OFFSET -9.308998 -2.777710 0.208500
						CHANNELS 3 Xrotation Yrotation Zrotation
						JOINT RightForeArm
						{
							OFFSET -29.972300 0.000000 0.000000
							CHANNELS 3 Xrotation Yrotation Zrotation
							JOINT RightHand
							{
								OFFSET -26.026505 0.000000 0.000000
								CHANNELS 3 Xrotation Yrotation Zrotation
								JOINT RightHandThumb1
								{
									OFFSET -12.240601 -7.148026 9.207092
									CHANNELS 3 Xrotation Yrotation Zrotation
									JOINT RightHandThumb2
									{
										OFFSET -4.138618 -2.389435 2.389433
										CHANNELS 3 Xrotation Yrotation Zrotation
										JOINT RightHandThumb3
										{
											OFFSET -2.726974 -1.574417 1.574421
											CHANNELS 3 Xrotation Yrotation Zrotation
											JOINT RightHandThumb4
											{
												OFFSET -3.941010 -2.275345 2.275343
												CHANNELS 3 Xrotation Yrotation Zrotation
												End Site
												{
													OFFSET 0.005814 5.087799 0.009927
												}
											}
										}
									}
								}
								JOINT RightHandIndex1
								{
									OFFSET -24.424698 -1.985657 5.953444
									CHANNELS 3 Xrotation Yrotation Zrotation
									JOINT RightHandIndex2
									{
										OFFSET -6.426697 0.000000 0.000000
										CHANNELS 3 Xrotation Yrotation Zrotation
										JOINT RightHandIndex3
										{
											OFFSET -5.337898 0.000000 0.000000
											CHANNELS 3 Xrotation Yrotation Zrotation
											JOINT RightHandIndex4
											{
												OFFSET -4.409401 0.000000 0.000000
												CHANNELS 3 Xrotation Yrotation Zrotation
												End Site
												{
													OFFSET 0.000000 4.409363 0.014408
												}
											}
										}
									}
								}
								JOINT RightHandMiddle1
								{
									OFFSET -23.810097 0.000000 0.000000
									CHANNELS 3 Xrotation Yrotation Zrotation
									JOINT RightHandMiddle2
									{
										OFFSET -7.176498 0.000000 0.000000
										CHANNELS 3 Xrotation Yrotation Zrotation
										JOINT RightHandMiddle3
										{
											OFFSET -6.774902 0.000000 0.000000
											CHANNELS 3 Xrotation Yrotation Zrotation
											JOINT RightHandMiddle4
											{
												OFFSET -5.403328 0.000000 0.000000
												CHANNELS 3 Xrotation Yrotation Zrotation
												End Site
												{
													OFFSET 0.027702 5.403244 0.017457
												}
											}
										}
									}
								}
								JOINT RightHandRing1
								{
									OFFSET -22.908302 -0.839325 -6.020576
									CHANNELS 3 Xrotation Yrotation Zrotation
									JOINT RightHandRing2
									{
										OFFSET -6.337502 0.000000 0.000000
										CHANNELS 3 Xrotation Yrotation Zrotation
										JOINT RightHandRing3
										{
											OFFSET -5.779297 0.000000 0.000000
											CHANNELS 3 Xrotation Yrotation Zrotation
											JOINT RightHandRing4
											{
												OFFSET -4.965698 0.000000 0.000000
												CHANNELS 3 Xrotation Yrotation Zrotation
												End Site
												{
													OFFSET 0.000000 4.965668 0.016226
												}
											}
										}
									}
								}
								JOINT RightHandPinky1
								{
									OFFSET -20.037003 -1.530334 -10.950259
									CHANNELS 3 Xrotation Yrotation Zrotation
									JOINT RightHandPinky2
									{
										OFFSET -5.254700 0.000000 0.000000
										CHANNELS 3 Xrotation Yrotation Zrotation
										JOINT RightHandPinky3
										{
											OFFSET -4.810204 0.000000 0.000000
											CHANNELS 3 Xrotation Yrotation Zrotation
											JOINT RightHandPinky4
											{
												OFFSET -3.647202 0.000000 0.000000
												CHANNELS 3 Xrotation Yrotation Zrotation
												End Site
												{
													OFFSET 0.000000 3.647186 0.011917
												}
											}
										}
									}
								}
							}
						}
					}
				}
			}
		}
	}
	JOINT LeftUpLeg
	{
		OFFSET 15.427100 -6.655098 0.678600
		CHANNELS 3 Xrotation Yrotation Zrotation
		JOINT LeftLeg
		{
			OFFSET 4.081073 -39.591068 13.024000
			CHANNELS 3 Xrotation Yrotation Zrotation
			JOINT LeftFoot
			{
				OFFSET -4.081074 -37.707932 -15.979700
				CHANNELS 3 Xrotation Yrotation Zrotation
				JOINT LeftToeBase
				{
					OFFSET 5.346399 -15.068900 20.645000
					CHANNELS 3 Xrotation Yrotation Zrotation
					JOINT LeftToe_End
					{
						OFFSET 2.754700 0.931300 11.300900
						CHANNELS 3 Xrotation Yrotation Zrotation
						End Site
						{
							OFFSET 0.000000 11.669021 0.000000
						}
					}
				}
			}
		}
	}
	JOINT RightUpLeg
	{
		OFFSET -15.569500 -6.655098 0.678600
		CHANNELS 3 Xrotation Yrotation Zrotation
		JOINT RightLeg
		{
			OFFSET -4.081825 -39.591045 13.023800
			CHANNELS 3 Xrotation Yrotation Zrotation
			JOINT RightFoot
			{
				OFFSET 4.081824 -37.707954 -15.979600
				CHANNELS 3 Xrotation Yrotation Zrotation
				JOINT RightToeBase
				{
					OFFSET -5.346400 -15.068900 20.645000
					CHANNELS 3 Xrotation Yrotation Zrotation
					JOINT RightToe_End
					{
						OFFSET -2.754700 0.931300 11.300900
						CHANNELS 3 Xrotation Yrotation Zrotation
						End Site
						{
							OFFSET 0.000000 11.669021 0.000000
						}
					}
				}
			}
		}
	}
}
MOTION
Frames: 6
Frame Time: 0.033333
-3.475512 64.779976 4.793566 -20.499923 -107.681662 -22.408744 45.225141 -7.556773 15.541551 -1.855907 -1.834822 -9.231978 -2.231145 -3.193246 -8.792725 3.480169 13.234013 3.135543 -23.538901 71.530030 5.577522 -0.000002 0.000002 -0.000002 -5.446452 -10.962608 -13.560179 101.068208 -99.928017 97.878182 0.000149 -80.946341 0.000139 -29.570006 37.369416 25.926852 27.368978 -31.211174 -2.623194 12.878161 61.108418 3.451066 -4.565716 23.207132 18.818269 -0.000003 -0.000000 0.000001 3.409533 7.638099 -64.576283 3.045594 5.136674 -61.306706 0.816322 2.984806 -30.585017 -0.000002 0.000002 -0.000005 3.409535 7.638102 -64.576283 3.045596 5.136678 -61.306719 0.816313 2.984811 -30.585024 0.000001 0.000000 -0.000001 3.409534 7.638099 -64.576290 3.045596 5.136679 -61.306699 0.816311 2.984805 -30.585024 0.000001 -0.000000 0.000001 3.409528 7.638090 -64.576290 3.045599 5.136683 -61.306699 0.816321 2.984807 -30.585020 -0.000001 0.000000 -0.000004 3.122139 12.208435 -6.934220 -34.157916 -11.593045 22.428437 0.000019 122.205704 -0.000015 -79.093481 15.341865 0.706888 14.999046 22.306117 9.028879 11.182941 -54.589945 -4.064264 -3.441211 -25.198788 -18.719378 -0.000002 -0.000004 0.000003 2.897202 -6.567303 67.103351 2.658712 -4.207438 64.564330 0.718983 -2.487910 32.233322 0.000000 0.000000 -0.000000 2.897201 -6.567302 67.103351 2.658715 -4.207440 64.564330 0.718978 -2.487914 32.233329 -0.000000 0.000000 -0.000001 2.897200 -6.567299 67.103337 2.658712 -4.207443 64.564337 0.718982 -2.487910 32.233319 0.000000 0.000000 -0.000001 2.897202 -6.567303 67.103351 2.658719 -4.207447 64.564330 0.718981 -2.487906 32.233322 -0.000000 0.000000 -0.000001 -43.392059 -11.892787 41.475699 68.695256 -13.866763 7.781975 -1.941105 -6.029938 -35.955103 -25.146754 0.289230 -2.104241 -0.000000 -0.000000 0.000000 -61.808533 2.603156 0.453748 72.759656 12.870802 0.419108 -17.776298 -0.967579 0.396567 -0.000150 -0.000007 0.000006 -0.000000 0.000000 -0.000000 
-3.498062 64.956551 4.870408 -20.656546 -107.925479 -22.533308 45.103168 -7.420744 15.306297 -1.912883 -1.775456 -9.164126 -2.278196 -3.121433 -8.734279 3.790345 13.161734 3.318674 -22.499828 71.540023 4.589804 0.000001 -0.000003 -0.000000 -5.434713 -11.100811 -13.519724 103.644419 -100.024972 100.091143 -0.000003 -80.408040 0.000013 -31.184629 35.092897 25.457020 27.368974 -31.211174 -2.623197 12.878163 61.108418 3.451067 -4.565718 23.207134 18.818273 0.000003 -0.000001 0.000001 3.409534 7.638098 -64.576290 3.045592 5.136674 -61.306699 0.816322 2.984807 -30.585020 -0.000002 0.000001 -0.000001 3.409534 7.638100 -64.576283 3.045595 5.136676 -61.306712 0.816314 2.984811 -30.585024 -0.000002 0.000001 -0.000003 3.409534 7.638098 -64.576290 3.045596 5.136675 -61.306699 0.816316 2.984807 -30.585024 0.000002 -0.000000 0.000001 3.409528 7.638087 -64.576290 3.045599 5.136682 -61.306706 0.816320 2.984807 -30.585020 -0.000000 0.000000 -0.000000 3.021188 12.104249 -6.382572 -34.030724 -10.690008 21.191620 0.000016 122.374314 -0.000016 -78.279425 13.826398 -1.604094 14.999044 22.306112 9.028879 11.182940 -54.589949 -4.064264 -3.441209 -25.198788 -18.719380 -0.000001 0.000000 0.000002 2.897200 -6.567303 67.103351 2.658712 -4.207437 64.564330 0.718983 -2.487911 32.233322 -0.000001 0.000000 -0.000000 2.897200 -6.567302 67.103351 2.658715 -4.207440 64.564330 0.718978 -2.487914 32.233333 -0.000000 -0.000000 -0.000001 2.897200 -6.567299 67.103337 2.658712 -4.207444 64.564337 0.718982 -2.487910 32.233322 -0.000001 0.000000 -0.000001 2.897201 -6.567303 67.103351 2.658718 -4.207446 64.564330 0.718982 -2.487906 32.233329 -0.000000 -0.000000 -0.000001 -43.365438 -11.586362 41.437494 68.548824 -13.841047 7.791302 -1.937541 -5.889749 -35.921529 -25.224152 0.281899 -2.051234 0.000000 0.000000 0.000000 -61.810910 2.667337 0.575676 72.470561 12.880335 0.303971 -17.621475 -0.980147 0.513425 -0.000150 -0.000007 0.000006 -0.000000 0.000000 0.000000 
-3.518145 65.240700 4.941011 -20.820105 -108.132256 -22.677516 44.858712 -7.265092 15.045426 -1.929574 -1.723112 -9.055585 -2.283230 -3.048332 -8.636513 4.066611 13.059774 3.554353 -20.931663 71.503652 3.049077 0.000001 -0.000001 0.000003 -5.395493 -11.290968 -13.360584 105.566017 -100.303438 101.549163 -0.000058 -79.775790 -0.000050 -32.371378 32.376439 24.936508 27.368978 -31.211174 -2.623198 12.878159 61.108418 3.451074 -4.565722 23.207134 18.818267 0.000000 -0.000001 0.000001 3.409534 7.638100 -64.576290 3.045596 5.136675 -61.306699 0.816321 2.984806 -30.585017 -0.000000 0.000000 -0.000002 3.409535 7.638102 -64.576283 3.045596 5.136676 -61.306712 0.816313 2.984810 -30.585020 0.000000 0.000000 0.000001 3.409534 7.638100 -64.576290 3.045597 5.136677 -61.306706 0.816313 2.984807 -30.585024 0.000001 -0.000000 0.000001 3.409528 7.638090 -64.576290 3.045602 5.136682 -61.306699 0.816320 2.984807 -30.585017 0.000000 0.000000 -0.000002 2.887800 11.850493 -5.751592 -34.020657 -9.601661 19.805541 -0.000010 122.547678 0.000005 -77.235841 12.279899 -3.825241 14.999046 22.306114 9.028880 11.182940 -54.589952 -4.064263 -3.441206 -25.198784 -18.719377 0.000005 -0.000003 0.000002 2.897201 -6.567303 67.103344 2.658712 -4.207438 64.564330 0.718983 -2.487910 32.233319 -0.000000 0.000000 -0.000002 2.897201 -6.567302 67.103344 2.658714 -4.207440 64.564337 0.718978 -2.487913 32.233329 0.000000 -0.000000 -0.000000 2.897200 -6.567299 67.103337 2.658712 -4.207444 64.564330 0.718983 -2.487910 32.233326 -0.000000 0.000000 -0.000002 2.897201 -6.567303 67.103344 2.658718 -4.207446 64.564337 0.718982 -2.487906 32.233326 -0.000000 0.000000 -0.000001 -43.336222 -11.225116 41.365043 68.231343 -13.791337 7.809911 -1.849696 -5.892029 -35.873670 -25.403359 0.275186 -1.941927 -0.000000 0.000000 -0.000000 -61.671513 2.680830 0.676988 72.012303 12.911826 0.192109 -17.422592 -0.982374 0.604314 -0.000150 -0.000007 0.000006 0.000000 -0.000000 -0.000000 
-3.538481 65.605492 5.002485 -21.023341 -108.292335 -22.870380 44.510027 -7.101062 14.783480 -1.903501 -1.683300 -8.910674 -2.244653 -2.980520 -8.502736 4.277584 12.937050 3.818144 -18.980068 71.413794 1.109948 0.000001 0.000001 0.000000 -5.327301 -11.519455 -13.079776 106.604233 -100.753630 102.109907 -0.000080 -79.173128 -0.000072 -33.064560 29.514350 24.435859 27.368978 -31.211171 -2.623198 12.878156 61.108412 3.451070 -4.565717 23.207137 18.818269 0.000004 -0.000001 -0.000001 3.409534 7.638099 -64.576290 3.045595 5.136675 -61.306699 0.816322 2.984807 -30.585017 -0.000000 -0.000000 -0.000005 3.409535 7.638101 -64.576283 3.045597 5.136675 -61.306712 0.816313 2.984811 -30.585020 0.000000 -0.000001 0.000004 3.409534 7.638099 -64.576290 3.045595 5.136677 -61.306699 0.816313 2.984806 -30.585027 0.000001 -0.000000 -0.000000 3.409528 7.638089 -64.576290 3.045602 5.136680 -61.306706 0.816321 2.984808 -30.585024 -0.000000 0.000001 -0.000001 2.738456 11.459911 -5.102506 -34.172546 -8.434790 18.393961 -0.000005 122.778907 0.000009 -76.050256 10.799805 -5.820232 14.999046 22.306115 9.028879 11.182945 -54.589949 -4.064264 -3.441207 -25.198789 -18.719378 0.000001 -0.000001 0.000003 2.897201 -6.567303 67.103344 2.658712 -4.207438 64.564337 0.718983 -2.487911 32.233322 0.000000 0.000000 -0.000000 2.897201 -6.567303 67.103351 2.658715 -4.207440 64.564337 0.718978 -2.487914 32.233336 -0.000000 0.000000 -0.000002 2.897200 -6.567299 67.103337 2.658713 -4.207443 64.564330 0.718983 -2.487910 32.233322 -0.000000 0.000000 -0.000001 2.897201 -6.567303 67.103351 2.658719 -4.207447 64.564337 0.718982 -2.487907 32.233326 -0.000001 -0.000000 -0.000000 -43.292655 -10.853180 41.241662 67.778925 -13.721819 7.836542 -1.716293 -5.981378 -35.818482 -25.632571 0.266560 -1.797663 0.000000 -0.000000 -0.000000 -61.421883 2.632673 0.678465 71.417093 12.915453 0.121177 -17.187930 -0.851066 0.681392 -0.000150 -0.000007 0.000006 -0.000000 0.000000 0.000000 
-3.556134 66.024628 5.051487 -21.318745 -108.407793 -23.156571 44.052302 -6.949807 14.524274 -1.831359 -1.661510 -8.737182 -2.160024 -2.924325 -8.340054 4.408734 12.806541 4.080891 -16.862147 71.273809 -0.994055 -0.000000 0.000001 -0.000000 -5.235014 -11.763666 -12.702432 106.830722 -101.326621 101.907481 0.000113 -78.689100 0.000112 -33.221012 26.734545 24.046451 27.368980 -31.211171 -2.623193 12.878159 61.108412 3.451067 -4.565719 23.207130 18.818267 0.000003 -0.000001 -0.000002 3.409534 7.638100 -64.576290 3.045595 5.136675 -61.306699 0.816323 2.984806 -30.585020 0.000002 0.000000 -0.000002 3.409535 7.638101 -64.576290 3.045595 5.136678 -61.306712 0.816311 2.984811 -30.585020 -0.000001 -0.000000 0.000002 3.409534 7.638100 -64.576297 3.045597 5.136678 -61.306706 0.816313 2.984807 -30.585020 0.000000 0.000001 -0.000003 3.409528 7.638090 -64.576290 3.045599 5.136684 -61.306699 0.816322 2.984808 -30.585024 0.000001 0.000000 0.000001 2.587567 10.965514 -4.486770 -34.493835 -7.295153 17.108523 -0.000033 123.084735 0.000030 -74.748518 9.499185 -7.439612 14.999046 22.306115 9.028880 11.182938 -54.589956 -4.064266 -3.441206 -25.198788 -18.719378 0.000000 0.000002 0.000002 2.897201 -6.567304 67.103351 2.658712 -4.207437 64.564330 0.718982 -2.487910 32.233322 0.000001 0.000000 -0.000002 2.897201 -6.567303 67.103344 2.658715 -4.207440 64.564330 0.718977 -2.487915 32.233333 -0.000000 0.000000 -0.000001 2.897200 -6.567300 67.103337 2.658711 -4.207442 64.564337 0.718982 -2.487909 32.233322 0.000000 -0.000000 -0.000000 2.897201 -6.567304 67.103344 2.658719 -4.207447 64.564330 0.718983 -2.487906 32.233329 0.000001 0.000000 -0.000001 -43.261493 -10.473502 41.074852 67.226895 -13.638026 7.869075 -1.559596 -6.129761 -35.761207 -25.884812 0.250838 -1.622067 0.000000 -0.000000 -0.000000 -61.104546 2.567399 0.590334 70.727586 12.842417 0.091534 -16.941704 -0.581992 0.780965 -0.000150 -0.000007 0.000006 0.000000 0.000000 -0.000000 
-3.566833 66.470062 5.090378 -21.771293 -108.490889 -23.596340 43.462519 -6.832834 14.260326 -1.712394 -1.662033 -8.544250 -2.029156 -2.884842 -8.157247 4.467498 12.682000 4.316200 -14.815205 71.098841 -3.008846 -0.000001 0.000000 0.000001 -5.129922 -11.996452 -12.278436 106.481659 -101.938538 101.202462 0.000040 -78.347652 0.000041 -32.820999 24.170648 23.860296 27.368978 -31.211174 -2.623197 12.878157 61.108412 3.451070 -4.565718 23.207134 18.818274 0.000002 -0.000000 -0.000000 3.409534 7.638099 -64.576290 3.045595 5.136674 -61.306699 0.816321 2.984806 -30.585017 0.000001 0.000000 -0.000001 3.409535 7.638102 -64.576283 3.045595 5.136677 -61.306712 0.816311 2.984812 -30.585017 0.000000 0.000000 -0.000004 3.409535 7.638100 -64.576290 3.045596 5.136677 -61.306706 0.816313 2.984806 -30.585024 -0.000001 -0.000001 0.000001 3.409528 7.638090 -64.576290 3.045599 5.136682 -61.306706 0.816321 2.984809 -30.585017 0.000001 0.000001 -0.000001 2.444629 10.417144 -3.934222 -34.943354 -6.273966 16.087006 -0.000003 123.434851 0.000005 -73.310749 8.500727 -8.526940 14.999048 22.306114 9.028881 11.182935 -54.589945 -4.064265 -3.441208 -25.198788 -18.719380 0.000000 0.000003 0.000005 2.897201 -6.567303 67.103344 2.658712 -4.207437 64.564337 0.718982 -2.487911 32.233322 -0.000000 0.000000 -0.000000 2.897201 -6.567302 67.103351 2.658714 -4.207441 64.564337 0.718978 -2.487913 32.233333 -0.000000 0.000000 0.000000 2.897200 -6.567299 67.103337 2.658712 -4.207446 64.564337 0.718982 -2.487910 32.233322 0.000001 -0.000000 -0.000000 2.897201 -6.567303 67.103351 2.658719 -4.207448 64.564337 0.718981 -2.487905 32.233322 0.000001 0.000000 0.000000 -43.290330 -10.070036 40.900774 66.605628 -13.547587 7.904424 -1.395036 -6.333442 -35.706241 -26.144648 0.229172 -1.425577 0.000000 -0.000000 0.000000 -60.781068 2.506944 0.498684 69.997486 12.765997 0.070725 -16.698520 -0.356366 0.877153 -0.000150 -0.000007 0.000006 0.000000 -0.000000 0.000000 
